<svg width="24" height="24" viewBox="0 0 24 24" fill="none" xmlns="http://www.w3.org/2000/svg">
<path fill-rule="evenodd" clip-rule="evenodd" d="M2.5 10.5C2.5 6.08172 6.08172 2.5 10.5 2.5C14.9183 2.5 18.5 6.08172 18.5 10.5C18.5 14.9183 14.9183 18.5 10.5 18.5C6.08172 18.5 2.5 14.9183 2.5 10.5ZM10.5 3.5C6.63401 3.5 3.5 6.63401 3.5 10.5C3.5 14.366 6.63401 17.5 10.5 17.5C14.366 17.5 17.5 14.366 17.5 10.5C17.5 6.63401 14.366 3.5 10.5 3.5Z" fill="#414141"/>
<path fill-rule="evenodd" clip-rule="evenodd" d="M15.4433 15.4472C15.6386 15.252 15.9552 15.252 16.1504 15.4472L21.3504 20.6472C21.5457 20.8425 21.5457 21.1591 21.3504 21.3543C21.1552 21.5496 20.8386 21.5496 20.6433 21.3543L15.4433 16.1543C15.2481 15.9591 15.2481 15.6425 15.4433 15.4472Z" fill="#414141"/>
</svg>
